<svg xmlns="http://www.w3.org/2000/svg" viewBox="0 0 32 32"><path d="M29.883 17.754a.502.502 0 0 1-.427-.238 13.41 13.41 0 0 0-7.99-5.96 13.402 13.402 0 0 0-7.807.252.5.5 0 0 1-.322-.948 14.403 14.403 0 0 1 8.388-.271 14.406 14.406 0 0 1 8.583 6.402.5.5 0 0 1-.425.763z"/><path d="M29.64 13.613a.5.5 0 0 1-.439-.26 13.355 13.355 0 0 0-8.324-6.535 13.43 13.43 0 0 0-7.616.188l-.154.051a.5.5 0 1 1-.316-.948l.162-.054a14.408 14.408 0 0 1 8.183-.203 14.34 14.34 0 0 1 8.942 7.021.5.5 0 0 1-.438.74z"/><path d="M16.032 30.468c-7.978 0-14.468-6.49-14.468-14.468S8.055 1.532 16.032 1.532 30.5 8.022 30.5 16s-6.49 14.468-14.468 14.468zm0-27.936C8.606 2.532 2.564 8.574 2.564 16s6.042 13.468 13.468 13.468S29.5 23.426 29.5 16 23.458 2.532 16.032 2.532z"/><path d="M16.032 30.468c-7.978 0-14.468-6.49-14.468-14.468S8.055 1.532 16.032 1.532 30.5 8.022 30.5 16s-6.49 14.468-14.468 14.468zm0-27.936C8.606 2.532 2.564 8.574 2.564 16s6.042 13.468 13.468 13.468S29.5 23.426 29.5 16 23.458 2.532 16.032 2.532z"/><path d="M16.032 30.468c-7.978 0-14.468-6.49-14.468-14.468S8.055 1.532 16.032 1.532 30.5 8.022 30.5 16s-6.49 14.468-14.468 14.468zm0-27.936C8.606 2.532 2.564 8.574 2.564 16s6.042 13.468 13.468 13.468S29.5 23.426 29.5 16 23.458 2.532 16.032 2.532z"/><path d="M15.97 30.468c-7.978 0-14.468-6.49-14.468-14.468S7.993 1.532 15.97 1.532 30.438 8.022 30.438 16s-6.49 14.468-14.468 14.468zm0-27.936C8.544 2.532 2.502 8.574 2.502 16S8.544 29.468 15.97 29.468 29.438 23.426 29.438 16 23.396 2.532 15.97 2.532z"/><path d="M15.97 30.468c-7.978 0-14.468-6.49-14.468-14.468S7.993 1.532 15.97 1.532 30.438 8.022 30.438 16s-6.49 14.468-14.468 14.468zm0-27.936C8.544 2.532 2.502 8.574 2.502 16S8.544 29.468 15.97 29.468 29.438 23.426 29.438 16 23.396 2.532 15.97 2.532z"/><path d="M15.947 30.475c-2.507 0-4.981-.657-7.21-1.945C1.828 24.541-.548 15.675 3.44 8.766 7.429 1.858 16.295-.519 23.204 3.47c6.909 3.989 9.284 12.855 5.296 19.764a14.373 14.373 0 0 1-8.785 6.741c-1.247.335-2.511.5-3.768.5zm.046-27.94c-4.658 0-9.195 2.416-11.687 6.731-3.713 6.431-1.501 14.684 4.93 18.398a13.388 13.388 0 0 0 10.22 1.346 13.385 13.385 0 0 0 8.178-6.275c3.713-6.432 1.501-14.685-4.93-18.398a13.378 13.378 0 0 0-6.711-1.802z"/><path d="M5.093 25.25a.5.5 0 0 1-.075-.994 13.423 13.423 0 0 0 4.713-1.655 13.495 13.495 0 0 0 5.847-6.858.5.5 0 1 1 .935.357 14.5 14.5 0 0 1-6.282 7.367 14.384 14.384 0 0 1-5.064 1.778.6.6 0 0 1-.074.005z"/><path d="M29.025 21.501a.5.5 0 0 1-.392-.188 13.369 13.369 0 0 0-3.798-3.265 13.494 13.494 0 0 0-8.862-1.634.5.5 0 0 1-.159-.987 14.503 14.503 0 0 1 10.118 2.119 14.345 14.345 0 0 1 3.483 3.144.5.5 0 0 1-.39.811z"/><path d="M16.001 16.605a.495.495 0 0 1-.388-.185 14.501 14.501 0 0 1-3.221-9.863c.079-1.561.407-3.087.974-4.535a.5.5 0 1 1 .93.364 13.4 13.4 0 0 0-.924 4.91c0 3.086 1.071 6.102 3.016 8.493a.5.5 0 0 1-.387.816zM7.928 27.921a.5.5 0 0 1-.014-1 13.408 13.408 0 0 0 9.157-3.938 13.393 13.393 0 0 0 3.701-6.971.506.506 0 0 1 .585-.397.5.5 0 0 1 .397.585 14.387 14.387 0 0 1-3.977 7.49 14.401 14.401 0 0 1-9.836 4.231h-.013z"/><path d="M11.956 29.785c-.11 0-.22-.002-.331-.004a.5.5 0 0 1 .011-1h.011c3.715.066 7.199-1.317 9.822-3.94a13.4 13.4 0 0 0 3.701-6.97.501.501 0 0 1 .982.19 14.39 14.39 0 0 1-3.976 7.487 14.341 14.341 0 0 1-10.22 4.237zm1.169-8.847a.497.497 0 0 1-.331-.125 14.412 14.412 0 0 1-4.387-7.092A14.406 14.406 0 0 1 9.661 3.086a.5.5 0 0 1 .879.477 13.418 13.418 0 0 0-1.167 9.899 13.411 13.411 0 0 0 4.083 6.601.5.5 0 0 1-.331.875z"/><path d="M9.288 23.792a.501.501 0 0 1-.332-.126 14.402 14.402 0 0 1-4.357-7.065A14.341 14.341 0 0 1 6.208 5.347a.5.5 0 1 1 .855.519 13.355 13.355 0 0 0-1.498 10.477 13.397 13.397 0 0 0 4.055 6.576.5.5 0 0 1-.332.873z"/></svg>