<svg xmlns="http://www.w3.org/2000/svg" data-name="Layer 3" viewBox="0 0 64 64"><path d="M43 62V57.188A4.371 4.371 0 0 0 40.406 53.2l-13.254-5.89a3.357 3.357 0 0 1-1.978-3.248l.824-14a1 1 0 0 0-.8-1.039l-9.268-1.854a8.534 8.534 0 0 0-9.683 5.418l-4.1 11.122a18.613 18.613 0 0 0-.193 12.321l2.1 6.289A1 1 0 0 0 5 63H42A1 1 0 0 0 43 62zM8.122 33.275a6.534 6.534 0 0 1 7.413-4.148l8.416 1.683-.142 2.412-6.63-1.2-.358 1.966 6.87 1.249-.126 2.128-7.386-1.343-.358 1.966 7.626 1.387L23.322 41.5l-8.143-1.48-.358 1.966L23.2 43.508l-.026.433A5.258 5.258 0 0 0 23.236 45H16.747a5.881 5.881 0 0 0-5.018 2.841 4.448 4.448 0 0 1-7.514.179l-.85-1.275a16.555 16.555 0 0 1 .66-2.348zM3 50.142c0-.134.014-.266.018-.4a6.446 6.446 0 0 0 10.427-.873 3.868 3.868 0 0 1 3.3-1.87h7.191a5.36 5.36 0 0 0 .973 1.188l-3.562 3.053 1.3 1.518L26.7 49.292l2.038.906-2.384 2.043 1.3 1.518L30.756 51.1l8.838 3.928A2.369 2.369 0 0 1 41 57.188V58H4.721l-.868-2.6A16.575 16.575 0 0 1 3 50.142zM5.72 61l-.333-1H41v1zM39.734 2.907A8.725 8.725 0 0 0 34.3 1H9.7A8.7 8.7 0 0 0 1 9.7v3.768A10.532 10.532 0 0 0 11.531 24a8.721 8.721 0 0 0 7.554-4.383l.791-1.385a2.447 2.447 0 0 1 4.248 0l.626 1.1A9.272 9.272 0 0 0 37.4 22.777 11.127 11.127 0 0 0 43 13.135V9.7A8.654 8.654 0 0 0 39.734 2.907zM3 9.7A6.7 6.7 0 0 1 9.7 3h.261l-5.8 14.761A8.527 8.527 0 0 1 3 13.469zm2.594 9.883L12.11 3h3.852L8.7 21.5a7.976 7.976 0 0 1-3.1-1.913zm5.074 2.36L18.11 3h2.852L13.637 21.644A6.653 6.653 0 0 1 11.531 22 8.563 8.563 0 0 1 10.668 21.944zm7.472-4.7l-.791 1.385a6.657 6.657 0 0 1-.812 1.106L23.11 3h1.852L20.07 15.453A4.437 4.437 0 0 0 18.14 17.24zm4.245-2.214L27.11 3h5.852L26.77 18.762c-.1-.142-.2-.277-.284-.427l-.626-1.1A4.45 4.45 0 0 0 22.385 15.026zm5.887 5.38L35.084 3.067a6.563 6.563 0 0 1 4.6 2.65L33.3 21.968c-.165.011-.328.032-.494.032A7.279 7.279 0 0 1 28.272 20.406zM41 13.135a9.125 9.125 0 0 1-4.588 7.906 7.252 7.252 0 0 1-.747.364L40.838 8.237A6.716 6.716 0 0 1 41 9.7zM56 1a7.008 7.008 0 0 0-7 7V56a7 7 0 0 0 14 0V8A7.008 7.008 0 0 0 56 1zM51 39.414l6.707-6.707a1 1 0 0 0 0-1.414L51 24.586V22.414L60.586 32 51 41.586zm0-2.828V27.414L55.586 32zM56 61a5.006 5.006 0 0 1-5-5V44.414l10-10V56A5.006 5.006 0 0 1 56 61zm5-31.414l-10-10V8A5 5 0 0 1 61 8z"/></svg>