<svg id="SvgjsSvg1048" width="288" height="288" xmlns="http://www.w3.org/2000/svg" version="1.1" xmlns:xlink="http://www.w3.org/1999/xlink" xmlns:svgjs="http://svgjs.com/svgjs"><defs id="SvgjsDefs1049"></defs><g id="SvgjsG1050"><svg xmlns="http://www.w3.org/2000/svg" viewBox="0 0 216.156 107.929" width="288" height="288"><g fill-rule="evenodd" stroke-miterlimit="2.613" stroke-width=".216" clip-rule="evenodd" fill="#000000" class="color000 svgShape"><path fill="#3477ce" stroke="#000" d="M.396.251h214.92v107.065H.396V.251z" class="color2c6698 svgShape colorStroke000 svgStroke"></path><path fill="#ffffff" stroke="#fff" d="M128.268 75.275l65.16 32.4h22.033V97.02l-53.568-25.703-33.625-.145v4.103zM87.444 75.42l-65.16 32.4H.252V97.164L53.82 71.459l33.624-.143v4.104zM128.484 32.795l65.232-32.4h22.031v10.656l-53.641 25.704-33.622.145v-4.105zM87.373 32.795L22.14.396H.108v10.656l53.64 25.704 33.625.144v-4.105z" class="colorfff svgShape colorStrokefff svgStroke"></path><path fill="#ffffff" stroke="#fff" d="M.468 36.18h214.848v35.064H.468V36.18z" class="colorfff svgShape colorStrokefff svgStroke"></path><path fill="#ffffff" stroke="#fff" d="M87.516.468h40.681v106.921H87.516V.468z" class="colorfff svgShape colorStrokefff svgStroke"></path><path fill="#b01842" stroke="#b01842" d="M95.004.108h25.705v107.281H95.004V.108zM.252 107.389L71.82 71.604h15.696l-72 36.072s-15.264 0-15.264-.287zM128.771 36.251L200.484.323h15.623l-71.711 35.928s-15.625.289-15.625 0zM.612 8.388l58.104 27.936H73.62L.684 2.339S.612 9.108.612 8.388zM215.172 100.26l-58.607-28.943-15.768-.072 74.375 36.287v-7.272z" class="colorb01842 svgShape colorStrokeb01842 svgStroke"></path><path fill="#ffffff" stroke="#fff" d="M128.053 33.156l1.152-.216-1.008 4.319s0-3.96-.144-4.103z" class="colorfff svgShape colorStrokefff svgStroke"></path><path fill="#b01842" stroke="#b01842" d="M.468 44.459h214.848V63.18H.468V44.459z" class="colorb01842 svgShape colorStrokeb01842 svgStroke"></path></g></svg></g></svg>