<svg xmlns="http://www.w3.org/2000/svg" data-name="Layer 1" viewBox="0 0 512 512"><rect width="505" height="198.27" x="3.5" y="157.49" fill="#017658"/><path fill="#f2f2f2" d="M508.5,93.3v86.46H3.5V93.3A67.36,67.36,0,0,1,70.82,25.93H441.18A67.33,67.33,0,0,1,508.5,93.3Z"/><path fill="#d12d37" d="M508.5,332.29v86.46a67.35,67.35,0,0,1-67.32,67.32H70.82A67.38,67.38,0,0,1,3.5,418.75V332.29Z"/><path fill="#fff" d="M441.43,54H70.82A39.27,39.27,0,0,0,31.54,93.28V303.14a27.54,27.54,0,0,0,31.34,27.19C295.39,299.11,409.26,155.91,455,77.56A15.68,15.68,0,0,0,441.43,54Z" opacity=".12"/></svg>