<svg id="SvgjsSvg1012" width="288" height="288" xmlns="http://www.w3.org/2000/svg" version="1.1" xmlns:xlink="http://www.w3.org/1999/xlink" xmlns:svgjs="http://svgjs.com/svgjs"><defs id="SvgjsDefs1013"></defs><g id="SvgjsG1014"><svg xmlns="http://www.w3.org/2000/svg" aria-label="Django Project" viewBox="0 0 512 512" width="288" height="288"><rect width="512" height="512" fill="#6c757d" rx="15%" class="color113228 svgShape"></rect><path fill="#ffffff" d="M227 101h56v257c-29 5-50 8-73 8-69 0-104-31-104-90 0-57 37-93 96-93 9 0 16 0 25 2zm0 129c-7-2-12-3-19-3-29 0-45 18-45 48s15 46 44 46c6 0 11 0 20-2zm145-44v129c0 45-3 66-13 84-9 18-21 29-46 42l-52-25c25-11 37-22 44-37 8-16 11-34 11-83V186zm-56-85h56v57h-56z" class="colorfff svgShape"></path></svg></g></svg>