<svg xmlns="http://www.w3.org/2000/svg" xmlns:xlink="http://www.w3.org/1999/xlink" version="1.1" width="256" height="256" viewBox="0 0 256 256" xml:space="preserve">

<defs>
</defs>
<g style="stroke: none; stroke-width: 0; stroke-dasharray: none; stroke-linecap: butt; stroke-linejoin: miter; stroke-miterlimit: 10; fill: none; fill-rule: nonzero; opacity: 1;" transform="translate(26.48765723769168 69.18131899044742) rotate(-15) scale(1.83 1.83)" >
	<path d="M 61.895 36.678 L 81.602 19.59 c 0.417 -0.362 0.462 -0.993 0.101 -1.411 c -0.363 -0.418 -0.994 -0.462 -1.411 -0.1 L 53.93 40.937 L 27.569 18.079 c -0.418 -0.361 -1.05 -0.317 -1.411 0.1 c -0.362 0.418 -0.317 1.049 0.1 1.411 L 46.09 36.787 L 32.366 47.72 c -0.432 0.345 -0.504 0.974 -0.159 1.406 c 0.198 0.248 0.489 0.377 0.783 0.377 c 0.219 0 0.439 -0.071 0.623 -0.218 L 47.627 38.12 l 5.647 4.897 c 0.189 0.163 0.422 0.245 0.655 0.245 c 0.233 0 0.467 -0.082 0.655 -0.245 l 5.767 -5.001 L 80.337 53.37 c 0.182 0.14 0.397 0.207 0.609 0.207 c 0.3 0 0.597 -0.135 0.794 -0.391 c 0.337 -0.439 0.254 -1.066 -0.184 -1.403 L 61.895 36.678 z" style="stroke: none; stroke-width: 1; stroke-dasharray: none; stroke-linecap: butt; stroke-linejoin: miter; stroke-miterlimit: 10; fill: rgb(108,117,125); fill-rule: nonzero; opacity: 1;" transform=" matrix(1 0 0 1 0 0) " stroke-linecap="round" />
	<path d="M 84.908 10.851 H 22.952 c -2.808 0 -5.092 2.284 -5.092 5.092 v 4.817 l -0.846 -1.426 c -0.788 -1.329 -2.448 -1.863 -3.856 -1.242 c -0.88 0.387 -2.024 0.888 -3.22 1.407 v 0 c -2.679 1.162 -4.571 1.961 -5.624 2.374 c -0.6 0.235 -1.098 0.578 -1.481 1.02 C -5.051 31.988 4.748 49.52 17.189 61.96 c 9.338 9.339 21.544 17.19 30.899 17.189 c 3.106 -0.001 5.901 -0.867 8.169 -2.833 c 0.442 -0.383 0.784 -0.881 1.019 -1.48 c 0.524 -1.335 1.58 -3.795 2.372 -5.62 c 0.521 -1.198 1.023 -2.344 1.41 -3.224 c 0.619 -1.411 0.085 -3.069 -1.242 -3.856 l -1.712 -1.016 h 26.806 c 2.807 0 5.092 -2.285 5.092 -5.093 V 15.943 C 90 13.135 87.715 10.851 84.908 10.851 z M 58.794 63.856 c 0.459 0.272 0.644 0.844 0.43 1.33 c -0.387 0.882 -0.891 2.033 -1.41 3.229 c -0.801 1.843 -1.867 4.327 -2.401 5.69 c -0.116 0.295 -0.274 0.53 -0.468 0.698 c -8.127 7.048 -24.538 -2.453 -36.343 -14.258 C 6.797 48.739 -2.701 32.331 4.344 24.203 c 0.168 -0.194 0.403 -0.351 0.699 -0.467 c 1.065 -0.418 2.954 -1.215 5.616 -2.369 c 1.226 -0.532 2.403 -1.047 3.303 -1.443 c 0.486 -0.215 1.058 -0.028 1.331 0.431 l 7.44 12.538 c 0.188 0.316 0.196 0.715 0.022 1.04 l -4.613 8.592 c -0.644 1.198 -0.43 2.649 0.532 3.609 l 14.34 14.34 c 0.961 0.959 2.41 1.174 3.609 0.532 l 8.592 -4.613 c 0.325 -0.173 0.724 -0.166 1.04 0.023 L 58.794 63.856 L 58.794 63.856 z M 88 56.026 c 0 1.705 -1.387 3.093 -3.092 3.093 H 54.731 l -7.453 -4.423 c -0.915 -0.543 -2.068 -0.568 -3.008 -0.064 l -8.592 4.612 c -0.414 0.224 -0.916 0.147 -1.249 -0.184 l -14.34 -14.341 c -0.333 -0.332 -0.406 -0.834 -0.184 -1.248 l 4.613 -8.593 c 0.504 -0.94 0.479 -2.092 -0.065 -3.007 l -4.593 -7.74 v -8.188 c 0 -1.705 1.387 -3.092 3.092 -3.092 h 61.956 c 1.705 0 3.092 1.387 3.092 3.092 V 56.026 z" style="stroke: none; stroke-width: 1; stroke-dasharray: none; stroke-linecap: butt; stroke-linejoin: miter; stroke-miterlimit: 10; fill: rgb(108,117,125); fill-rule: nonzero; opacity: 1;" transform=" matrix(1 0 0 1 0 0) " stroke-linecap="round" />
</g>
</svg>